<svg width="189" height="22" viewBox="0 0 189 22" fill="none" xmlns="http://www.w3.org/2000/svg">
  <path
    d="M8.213 21.416C12.97 21.416 16.183 18.963 16.183 15.045C16.183 6.76001 5.03099 10.289 5.03099 5.922C5.03099 4.696 6.151 3.85799 7.94 3.85799C9.97 3.85799 11.243 4.93499 11.395 6.57999H15.728C15.607 2.60199 12.516 -7.62939e-06 7.94 -7.62939e-06C3.637 -7.62939e-06 0.606003 2.453 0.606003 5.922C0.606003 14.148 11.606 11.007 11.606 15.105C11.606 16.69 10.243 17.528 8.213 17.528C5.97 17.528 4.54599 16.182 4.36299 14.058H0C0.182 18.515 3.394 21.416 8.213 21.416Z"
    fill="#E2FCA4" />
  <path
    d="M186.668 10.708C186.668 15.7436 182.978 19.416 177.849 19.416C172.687 19.416 169 15.7398 169 10.708C169 5.67529 172.687 2 177.849 2C182.979 2 186.668 5.67153 186.668 10.708Z"
    stroke="#E2FCA4" stroke-width="4" />
  <path
    d="M23.137 21.177H27.561L31.774 7.238L35.986 21.177H40.471L46.744 0.238991H42.138L38.047 14.566L33.683 0.239998H29.834L25.501 14.567L21.44 0.239998H16.833L23.137 21.178V21.177Z"
    fill="#E2FCA4" />
  <path d="M50 20.938H64.759V17.049H54.546V12.174H62.425V8.285H54.546V3.85901H64.425V0H50V20.938Z" fill="#E2FCA4" />
  <path d="M69 20.938H83.759V17.049H73.546V12.174H81.425V8.285H73.546V3.85901H83.425V0H69V20.938Z" fill="#E2FCA4" />
  <path fill-rule="evenodd" clip-rule="evenodd"
    d="M108.416 0V21.416H104.225V7.472L90.315 21.382L87.032 18.1L100.942 4.19H87V0H108.416Z" fill="#E2FCA4" />
  <path d="M159 21.178H163.576V0.239998H159V21.178Z" fill="#E2FCA4" />
  <path
    d="M148.438 0.240005V8.554H139.71V0.240005H135.165V21.178H139.71V12.414H148.438V21.178H153.014V0.238998H148.438V0.240005Z"
    fill="#E2FCA4" />
  <path
    d="M122.637 21.416C128.061 21.416 131.971 18.395 132.364 13.908H127.819C127.455 16.062 125.364 17.528 122.637 17.528C119.212 17.528 116.576 15.195 116.576 10.708C116.576 6.22101 119.212 3.858 122.636 3.858C125.304 3.858 127.395 5.32401 127.698 7.50801H132.455C131.88 2.99001 127.97 0 122.637 0C116.97 0 112 3.65001 112 10.708C112 17.767 116.879 21.416 122.637 21.416Z"
    fill="#E2FCA4" />
</svg>